/* XPM */
static char *_81d382b8cbe4e4faa6a44204a8596b02wvgLgUwenL40h1K[] = {
/* columns rows colors chars-per-pixel */
"32 32 192 2 ",
"   c None",
".  c #6F371E",
"X  c #763415",
"o  c #7D3A15",
"O  c #72351C",
"+  c #43322C",
"@  c #4F3428",
"#  c #573526",
"$  c #5D3624",
"%  c #693721",
"&  c #6A3922",
"*  c #6E3920",
"=  c #6E3821",
"-  c #693C23",
";  c #7B481F",
":  c #80461C",
">  c #854A1C",
",  c #854E1C",
"<  c #85501D",
"1  c #8D581C",
"2  c #A16C19",
"3  c #C18713",
"4  c #CB8D10",
"5  c #F1B20E",
"6  c #F6B90F",
"7  c #F8BC0E",
"8  c #FBBE0E",
"9  c #FFBF0D",
"0  c #EEB211",
"q  c #FFC10D",
"w  c #FFC30D",
"e  c #FDC00E",
"r  c #FFC00E",
"t  c #FFC10E",
"y  c #FFC10F",
"u  c #FFC20E",
"i  c #FFC30E",
"p  c #FFC20F",
"a  c #FFC30F",
"s  c #FFC40E",
"d  c #FFCA0F",
"f  c #FFC110",
"g  c #FFC210",
"h  c #FFC310",
"j  c #FFC211",
"k  c #FFC311",
"l  c #FFC312",
"z  c #FFC213",
"x  c #FFC313",
"c  c #FFC410",
"v  c #FFC412",
"b  c #FFC512",
"n  c #FFC413",
"m  c #FDC713",
"M  c #FFC712",
"N  c #FFC314",
"B  c #FFC316",
"V  c #FFC514",
"C  c #FFC415",
"Z  c #FFC515",
"A  c #FFC416",
"S  c #FFC516",
"D  c #FFC417",
"F  c #FFC517",
"G  c #FCC717",
"H  c #FFC616",
"J  c #FFC810",
"K  c #FFC910",
"L  c #FFCA12",
"P  c #FFCB12",
"I  c #FFCB13",
"U  c #FFCE13",
"Y  c #FDCA14",
"T  c #FFCA14",
"R  c #FECB17",
"E  c #FFCD15",
"W  c #FECE15",
"Q  c #FECC16",
"!  c #FFCE16",
"~  c #FBC71A",
"^  c #FDC518",
"/  c #FEC518",
"(  c #FEC519",
")  c #FDC618",
"_  c #FFC618",
"`  c #FFC619",
"'  c #FFC719",
"]  c #FEC51A",
"[  c #FEC61A",
"{  c #FFC61A",
"}  c #FFC61B",
"|  c #FEC51C",
" . c #FDC61C",
".. c #FEC71C",
"X. c #FEC61E",
"o. c #FEC71F",
"O. c #FECB18",
"+. c #FEC81B",
"@. c #FDCC18",
"#. c #FECF19",
"$. c #FECD1A",
"%. c #FDCE1B",
"&. c #FEC81D",
"*. c #FEC91D",
"=. c #FDC91E",
"-. c #FDC91F",
";. c #FEC81E",
":. c #FEC81F",
">. c #FEC91F",
",. c #FDCD1D",
"<. c #FDCE1C",
"1. c #FDCE1E",
"2. c #FED019",
"3. c #FFD119",
"4. c #FED11A",
"5. c #FFD11A",
"6. c #FED01B",
"7. c #FDD01D",
"8. c #FED01C",
"9. c #FFD31D",
"0. c #FDD11F",
"q. c #FFD21E",
"w. c #FDC621",
"e. c #FEC720",
"r. c #FEC920",
"t. c #FEC821",
"y. c #FDCB21",
"u. c #FECA20",
"i. c #FEC922",
"p. c #FECB22",
"a. c #FECE21",
"s. c #FDCD23",
"d. c #FCCE22",
"f. c #FDCE23",
"g. c #FCC924",
"h. c #FECB24",
"j. c #FECB25",
"k. c #FDC927",
"l. c #FDCA26",
"z. c #FDCC24",
"x. c #FDCE24",
"c. c #FDCE25",
"v. c #FDCC27",
"b. c #FDCD27",
"n. c #FDCF26",
"m. c #FDCA28",
"M. c #FBCD2B",
"N. c #FCCD29",
"B. c #FECC29",
"V. c #FDCF28",
"C. c #FCCC2A",
"Z. c #FDCF2A",
"A. c #FDCB2D",
"S. c #FDCE2C",
"D. c #FDCE2D",
"F. c #FCCC2F",
"G. c #FDD120",
"H. c #FED020",
"J. c #FFD220",
"K. c #FCD122",
"L. c #FDD122",
"P. c #FDD123",
"I. c #FED323",
"U. c #FED422",
"Y. c #FDD024",
"T. c #FDD025",
"R. c #FDD125",
"E. c #FDD224",
"W. c #FED225",
"Q. c #FDD327",
"!. c #FED327",
"~. c #FDD424",
"^. c #FDD427",
"/. c #FED427",
"(. c #FDD028",
"). c #FDD029",
"_. c #FDD228",
"`. c #FDD328",
"'. c #FDD229",
"]. c #FDD02A",
"[. c #FDD12A",
"{. c #FDD02B",
"}. c #FDD02E",
"|. c #FDD32E",
" X c #FDD22F",
".X c #FDD52C",
"XX c #FDD42D",
"oX c #FCCF30",
"OX c #FBCE3D",
"+X c #FCCE3F",
"@X c #FDD230",
"#X c #FED430",
/* pixels */
"                                                                ",
"                                            O . % # +           ",
"                                          X = = & $ @           ",
"                                          o > , ; - $           ",
"                                          : 4 3 2 1 <           ",
"                                          i 7 7 6 0 5           ",
"                                          i i i i m g i         ",
"                                        i i i g G ( e.g         ",
"                                        i i i m ( | OX(         ",
"                                        i i g ( e.h.+X|         ",
"                                      i i g ( i.h.A.D.:.        ",
"                                    i i m G i.V.D.oXV.~         ",
"                                  i i i m | v.|.@X|.a.          ",
"                                  i i g G :.V.|.#X.X,.          ",
"                                i i g m ( i.(..X.X/.+.          ",
"                              9 i g m G :.v.(././.9.            ",
"                            i i g G ( :.a.R.U.9.6.J             ",
"                        i i i m G :.i.a.R.P.6.W J               ",
"                        i s g G ( i.v.R.P.9.W J                 ",
"                      i g g G +.i.a.R.P.9.$.J J                 ",
"                    g B ( | :.v.v.R.R.P.6.J J                   ",
"                  m G :.h.v.V.(.(.P.9.6.U d                     ",
"                G :.h.V.(.(.(.R.P.,.$.W                         ",
"            g B ( h.M.(.(.R.R.P.$.Y Y                           ",
"          i g B | m.D.(.R.P.P.6.W Y                             ",
"          i i B ( i.v.a.,.$.$.Y J                               ",
"          i i g g ( ( G m m J                                   ",
"              i i i                                             ",
"                                                                ",
"                                                                ",
"                                                                ",
"                                                                "
};
