/* XPM */
static char *_2fb3eba661444c594be90fc2a0793e8bVgDrfhgiWl44r6V[] = {
/* columns rows colors chars-per-pixel */
"32 32 212 2 ",
"   c #05060A",
".  c #01080F",
"X  c #09090B",
"o  c #1B0A09",
"O  c #060B13",
"+  c #0B0D14",
"@  c #070E18",
"#  c #090F19",
"$  c #0E1217",
"%  c #0C121D",
"&  c #151314",
"*  c #191314",
"=  c #12151C",
"-  c #141A1F",
";  c #1D1919",
":  c #251719",
">  c #2A231F",
",  c #34261E",
"<  c #0E1421",
"1  c #111623",
"2  c #131925",
"3  c #191D25",
"4  c #161C2A",
"5  c #191E2B",
"6  c #211F21",
"7  c #1D2026",
"8  c #1B212D",
"9  c #1C2433",
"0  c #1F2936",
"q  c #1F2939",
"w  c #232224",
"e  c #21232B",
"r  c #2B2628",
"t  c #26292E",
"y  c #372B29",
"u  c #222631",
"i  c #252A35",
"p  c #2A2D35",
"a  c #202738",
"s  c #242B3A",
"d  c #2A2E39",
"f  c #2D313B",
"g  c #31343D",
"h  c #39373B",
"j  c #4E2D24",
"k  c #4F3929",
"l  c #4A3E39",
"z  c #573E3A",
"x  c #623526",
"c  c #4B433D",
"v  c #52443D",
"b  c #624236",
"n  c #2C3444",
"m  c #2D3848",
"M  c #333741",
"N  c #393345",
"B  c #353943",
"V  c #3A3C45",
"C  c #343C4B",
"Z  c #3B3E49",
"A  c #423D43",
"S  c #3E4046",
"D  c #3D414C",
"F  c #364355",
"G  c #3C4351",
"H  c #3D4B5A",
"J  c #3C4A61",
"K  c #464443",
"L  c #43454D",
"P  c #4F4D4E",
"I  c #434752",
"U  c #444952",
"Y  c #494C55",
"T  c #4C4F59",
"R  c #594F50",
"E  c #4C515A",
"W  c #5B5354",
"Q  c #51545C",
"!  c #5A5A5C",
"~  c #6C4F4A",
"^  c #685955",
"/  c #7C5A56",
"(  c #745D58",
")  c #65635E",
"_  c #71655F",
"`  c #424F61",
"'  c #435267",
"]  c #4B5462",
"[  c #49576C",
"{  c #515660",
"}  c #545862",
"|  c #5C5E63",
" . c #545D6C",
".. c #5E626B",
"X. c #556376",
"o. c #6C6967",
"O. c #62656E",
"+. c #796C65",
"@. c #77706C",
"#. c #676B76",
"$. c #6B7079",
"%. c #777777",
"&. c #7C7A7B",
"*. c #85584D",
"=. c #925E51",
"-. c #87675C",
";. c #9C655C",
":. c #99765E",
">. c #A66B59",
",. c #B36A5C",
"<. c #AF745A",
"1. c #826864",
"2. c #926A69",
"3. c #997E6F",
"4. c #8A7672",
"5. c #9D7B73",
"6. c #A76E62",
"7. c #A47166",
"8. c #AA7165",
"9. c #AB7369",
"0. c #AE7C6C",
"q. c #B47C6C",
"w. c #BA7C6C",
"e. c #A37671",
"r. c #AD7A74",
"t. c #B37E73",
"y. c #BD7D70",
"u. c #C36C57",
"i. c #9D897F",
"p. c #AB8269",
"a. c #AE8979",
"s. c #B28174",
"d. c #BC8473",
"f. c #BA8A71",
"g. c #BC937D",
"h. c #BA987C",
"j. c #C48569",
"k. c #C38773",
"l. c #CA8B78",
"z. c #D88671",
"x. c #C79378",
"c. c #D39574",
"v. c #DD957D",
"b. c #DA9B7C",
"n. c #D9A17D",
"m. c #596880",
"M. c #6B7282",
"N. c #767C86",
"B. c #7B7D81",
"V. c #7B808A",
"C. c #7C8391",
"Z. c #7B939D",
"A. c #878583",
"S. c #95918E",
"D. c #8A8E95",
"F. c #959796",
"G. c #9A999A",
"H. c #B48581",
"J. c #B09D93",
"K. c #9497A1",
"L. c #9A9EA4",
"P. c #9FA6B1",
"I. c #A3A6AC",
"U. c #A8A9A9",
"Y. c #B1AFAD",
"T. c #A7ABB4",
"R. c #AFB0B5",
"E. c #B4B3B3",
"W. c #B9BABA",
"Q. c #C78D81",
"!. c #C79B84",
"~. c #D29C83",
"^. c #D99C86",
"/. c #C29896",
"(. c #C9A58E",
"). c #DCA584",
"_. c #DAA38A",
"`. c #D8A98A",
"'. c #C9A894",
"]. c #D8AD97",
"[. c #E4AB8D",
"{. c #E8AD8C",
"}. c #E5B38E",
"|. c #E3AC93",
" X c #E2AE98",
".X c #E5B494",
"XX c #EAB494",
"oX c #E9B79D",
"OX c #E5B999",
"+X c #ECBC9D",
"@X c #D1ADA4",
"#X c #DEB6A0",
"$X c #EBBEA2",
"%X c #C7C1BF",
"&X c #D5C2BC",
"*X c #EDC3A4",
"=X c #EEC6A9",
"-X c #EFCBAF",
";X c #F0C3A5",
":X c #BFC1C3",
">X c #CAC8C9",
",X c #D0CFCF",
"<X c #C4CAD0",
"1X c #D9D7D8",
"2X c #E2CDC0",
"3X c #F2DBD7",
"4X c #E1E5E5",
"5X c #E9E7E5",
"6X c #EFF0F1",
"7X c #F5F4F4",
"8X c #F7F8F9",
"9X c #000000",
/* pixels */
"9X9X9X9X9X9X9X9X9X9X9X9X9X9X9X9X9X9X9X9X9X9X9X9X9X9X9X9X9X9X9X9X",
"9X9X9X9X9X9X9X9X9X9X9X9X9X9X9X9X9X9X9X9X9X9X9X9X9X9X9X9X9X9X9X9X",
"9X9X9X9X9X9X9X9X9X9X9X9X9X8X8X8X8X8X8X9X9X9X9X9X9X9X9X9X9X9X9X9X",
"9X9X9X9X9X9X9X9X9X9X9XW.F.h ; * ; w h A.Y.7X9X9X9X9X9X9X9X9X9X9X",
"9X9X9X9X9X9X9X9X9X9XP 6 & & & * * : ; > c _ >X9X9X9X9X9X9X9X9X9X",
"9X9X9X9X9X9X9X9X5XK ; y s.!.!.OX`.<.x k z , y E.9X9X9X9X9X9X9X9X",
"9X9X9X9X9X9X9X8X! & 1.Q._._._.|.$X*X`.`.f.-.o l 7X9X9X9X9X9X9X9X",
"9X9X9X9X9X9X9X7X& 2.s.Q.^.|.l.^.*X$X|.[.oX;X#Xj @.Y.8X9X9X9X9X9X",
"9X9X9X9X9X9X9X5Xz r.e.1.^ J.k. X-X$X^.^.|.oX+Xg.v &.1X9X9X9X9X9X",
"9X9X9X9X9X9X'.-.e.s.t.r.p ].^.+X=X$X@XZ.t a.XX=XOXW %X9X9X9X9X9X",
"9X9X9X9X9X9X/.z r.k.~._._.x.,.u.v.;X|.4.U.2XoX*X=Xr ,X9X9X9X9X9X",
"9X9X9X9X9X9X/.;.9.w.l.l.d.t.y.c.[.*X$XXX.XoX*X*X*Xb %X9X9X9X9X9X",
"9X9X9X9X9X9X9XH.9.8.w.q.0.t.~..X+X+X+X+X$X+X+X+X+Xp.0.[.9X9X9X9X",
"9X9X9X9X9X9X9X&X7.6.8.9.d.x.,.b.).[.XX.XXXXXXXXX+X!.j.z.3X9X9X9X",
"9X9X9X9X9X9X9XY *.;.>.8.w.d.k.b..X.X.X[.[.{.}.XX.X`.[.oX9X9X9X9X",
"9X9X9X9X9X9X<Xm X.e ^ ~ 5.=.>.j.c.b.n.n.x.(.!.a.4.S.i.9X9X9X9X9X",
"9X9X9X9X9X4X] ' C ]  .7 } A W ^ l S.^ +.@.A.Y.o.W.%.U.>X9X9X9X9X",
"9X9X9XD.s 4 2 m.D #.U ..C.p V...h &.! o.F.^ E.) Y.A.S ..7X9X9X9X",
"9X9X8X2 < % % J C X.- E M.B B.! P D.%.K G.o.I.K | i f V #.9X9X9X",
"9X9X9X4 t . O 5 3 ] a V M.7 0 7 + I 7 X X   w w B B V D I 9X9X9X",
"9X9X8Xa / / r H } { V 3 3 = 3 i p g B B B h h g V D D D D 9X9X9X",
"9X9X9X5.<..X~.'.Q  .O.f f f V B B B B B h V Z L D I Z Z Q 9X9X9X",
"9X9X9X-.s.f.h.'.i.g t Z B M B U R W 3.|.+XOX}.-.B V D L :X9X9X9X",
"9X9X9X/.h d p g g f d d 3 i i } g.x.).).XXb.OX( B U L Q 9X9X9X9X",
"9X9X9X9XG i u e u u u 5 1 = # = f : *.o y l.:.}.L L V O.9X9X9X9X",
"9X9X9X9XG 2 2 2 2 2 # @ 2 e 8 i d s i p p N 1.V V V L I.9X9X9X9X",
"9X9X9X9XG % 0 f 7 u = % % < % 2 5 5 u u i i Z L L D Y 8X9X9X9X9X",
"9X9X9X9XG 1 %   $ -     O O # # % # % # % 8 g p B V V 6X9X9X9X9X",
"9X9X9X9XG 2 0 n s C + # 3 7 2 # @ O O O e f g i B D I 9X9X9X9X9X",
"9X9X9X9XD 2 m F C  .t 1 u f e p f t p i f f M g V D L F.9X9X9X9X",
"9X9X9X9XG 2 a 5 f M 3 3 i % = p i p d i d f B g D Z U %.9X9X9X9X",
"9X9X9X9XI a ' [ X.` 7 5 d i u d d d p d d d d B g B L $.9X9X9X9X",
"9X9X9X9XZ 0 D 8 2 - = % # s C C C B f u f f M B p L L %.9X9X9X9X",
"9X9X9X9XG q H F m G U D.D.T.P.I.T.I.L.G.V.C i M Z I I W.9X9X9X9X",
"9X9X9X9X{ n F F H ] $.O...V.K.I.I.R.R.E.>X>X,XL.$.Y T 9X9X9X9X9X",
"9X9X9X9X1XL.s 5 4 4 1 1 1 1 1 1 2 2 1 1 { O.#.$.:X:XW.9X9X9X9X9X",
"9X9X9X9X9X9XN.s 9 4 4 2 4 4 8 4 u d i d f M V i a | 8X9X9X9X9X9X",
"9X9X9X9X9X9X9XN.a 9 8 5 5 4 8 5 u i i d g B I } 3 B.9X9X9X9X9X9X",
"9X9X9X9X9X9X9X7Xn 0 9 8 8 5 5 5 9 9 u i f Z Y D 8 B.9X9X9X9X9X9X"
};
