/* XPM */
static char *_9d1b055b2ae4ec3fc41e8ddc91299bcPdw1zIVP6viArQ7s[] = {
/* columns rows colors chars-per-pixel */
"32 32 93 2 ",
"   c None",
".  c gray3",
"X  c #0B0B0B",
"o  c #170E07",
"O  c #1D1D1D",
"+  c #341906",
"@  c #3F1D05",
"#  c #2C231C",
"$  c gray13",
"%  c #222222",
"&  c gray14",
"*  c gray16",
"=  c #2D2D2D",
"-  c gray18",
";  c #313131",
":  c #323232",
">  c gray20",
",  c #353535",
"<  c #393939",
"1  c #3A3A3A",
"2  c #3C3C3C",
"3  c gray24",
"4  c #3E3E3E",
"5  c #542504",
"6  c #4D4B06",
"7  c #4E4C09",
"8  c #7B7707",
"9  c #7C7804",
"0  c gray25",
"q  c #414141",
"w  c #434343",
"e  c #444444",
"r  c gray27",
"t  c gray29",
"y  c #4B4B4B",
"u  c #535353",
"i  c #565656",
"p  c gray35",
"a  c gray36",
"s  c #5F5F5F",
"d  c #64645F",
"f  c #65655F",
"g  c #6B6B5B",
"h  c #6F6E58",
"j  c #767454",
"k  c #7B7A51",
"l  c #606060",
"z  c gray38",
"x  c #626262",
"c  c gray39",
"v  c #646464",
"b  c #656565",
"n  c #676767",
"m  c #686868",
"M  c DimGray",
"N  c #6A6A6A",
"B  c gray42",
"V  c #6C6C6C",
"C  c #6D6D6D",
"Z  c #6E6D6C",
"A  c gray43",
"S  c #6F6F6F",
"D  c #717171",
"F  c #727272",
"G  c gray45",
"H  c #747474",
"J  c gray46",
"K  c #A64500",
"L  c #A64600",
"P  c #B2AE2F",
"I  c #BFBA27",
"U  c #A9A535",
"Y  c #C0BB27",
"T  c #CDC71F",
"R  c #D9D317",
"E  c #DCD615",
"W  c #DDD615",
"Q  c #DED715",
"!  c #E6DF0F",
"~  c #E0DA13",
"^  c #E4DD11",
"/  c #E6DF10",
"(  c #FAF203",
")  c #FDF501",
"_  c #FEF600",
"`  c #FFF700",
"'  c #C5C023",
"]  c #C7C222",
"[  c #C9C421",
"{  c #CAC422",
"}  c #888649",
"|  c #D5BAA7",
" . c #E0BEA6",
/* pixels */
"` ` ` ` ` ` ` ` ` ` ` ` ` ` ` ` ` ` ` ` ` ` ` ` ` ` ` ` ` ` ` ` ",
"` ` ` ` ` ` ` ` ` ` ` ` ` ` ` ` ` ` ` ` ` ` ` ` ` ` ` ` ` ` ` ` ",
"` ` ` ` ` ` ` ` ` ` ` ` ` ` ` ` ` ` ` ` ` ` ` ` ` ` ` ` ` ` ` ` ",
"` ` ` ` ` ` ` ` ` ` ` ` ` ` ` ` ` ` ` ` ` ` ` ` ` ` ` ` ` ` ` ` ",
"` ` ` ` ` ` ` ` ` ` ` ` ` ` ` ` ` ` ` ` ` ` ` ` ` ` ` ` ` ` ` ` ",
"` ` ` ` ` ` ` ` ` ` ` ( ' z z z z z z ' ( ( ` ` ` ` ` ` ` ` ` ` ",
"` ` ` ` ` ` ` ` ` ! W z b A m z z m A b b d / ` ` ` ` ` ` ` ` ` ",
"` ` ` ` ` ` ` ` R k m m J J < $ $ < J J J m j R ` ` ` ` ` ` ` ` ",
"` ` ` ` ` ` ` R k m e y J J < $ $ < J J y q q k R ` ` ` ` ` ` ` ",
"` ` ` ` ` ` ` I m q $ & y J m z z m J J - $ > b j / ` ` ` ` ` ` ",
"` ` ` ` ` ` W d A > $ $ 4 m z z z z m J - $ > F m W ` ` ` ` ` ` ",
"` ` ` ` ` ` [ m J 4 - - 4 z         z z > - 4 J J b ( ` ` ` ` ` ",
"` ` ` ` ` ( z A J J J A z               z J J J J b ' ` ` ` ` ` ",
"9 9 9 9 9 8 b J J J J z     K K K K     z m J J J A z 9 9 9 9 9 ",
"X X X X X X p 4 < < F z   K 5 | + 5 K     z < < < m z X X X X X ",
"X X X X X X u $ $ $ F z   K + O X + K     a $ $ $ z z X X X X X ",
"X X . . . X i - * * F z   K @ o #  .K     a * * * b z X X X X . ",
"6 6 6 6 6 7 b J J J J z     K K K K K   z b J J J F z 6 6 6 6 6 ",
"` ` ` ` ` ( z A J J J m z     K K K     z J J J J b U ` ` ` ` ` ",
"` ` ` ` ` ` P m J y 4 4 e z         z z 4 4 y J J b ( ` ` ` ` ` ",
"` ` ` ` ` ` W z A > $ $ 4 m z z z z m F - $ > F m [ ` ` ` ` ` ` ",
"` ` ` ` ` ` ` I A , $ $ q J F F F F J J - $ > m d W ` ` ` ` ` ` ",
"` ` ` ` ` ` ` T h A , 4 J J < $ $ < J J 4 > < h T ` ` ` ` ` ` ` ",
"` ` ` ` ` ` ` ` ' } A A J J < $ $ < J J J A h ' ` ` ` ` ` ` ` ` ",
"` ` ` ` ` ` ` ` ` / Y z m A a u u a A m m g T ` ` ` ` ` ` ` ` ` ",
"` ` ` ` ` ` ` ` ` ` ` W P z b b b b z P W ~ ` ` ` ` ` ` ` ` ` ` ",
"` ` ` ` ` ` ` ` ` ` ` ` ` ( ( ( ( ( ( ` ` ` ` ` ` ` ` ` ` ` ` ` ",
"` ` ` ` ` ` ` ` ` ` ` ` ` ` ` ` ` ` ` ` ` ` ` ` ` ` ` ` ` ` ` ` ",
"` ` ` ` ` ` ` ` ` ` ` ` ` ` ` ` ` ` ` ` ` ` ` ` ` ` ` ` ` ` ` ` ",
"` ` ` ` ` ` ` ` ` ` ` ` ` ` ` ` ` ` ` ` ` ` ` ` ` ` ` ` ` ` ` ` ",
"` ` ` ` ` ` ` ` ` ` ` ` ` ` ` ` ` ` ` ` ` ` ` ` ` ` ` ` ` ` ` ` ",
"` ` ` ` ` ` ` ` ` ` ` ` ` ` ` ` ` ` ` ` ` ` ` ` ` ` ` ` ` ` ` ` "
};
